<svg
    xmlns="http://www.w3.org/2000/svg"
    version="1.1"
    xmlns:xlink="http://www.w3.org/1999/xlink"
    xmlns:svgjs="http://svgjs.com/svgjs"
    width="1440"
    height="560"
    preserveAspectRatio="none"
    viewBox="0 0 1440 560">
    <g mask="url(&quot;#SvgjsMask1066&quot;)" fill="none">
        <rect width="1440" height="560" x="0" y="0" fill="url(#SvgjsLinearGradient1067)"></rect>
        <path
            d="M135.17 41.89L200.13 79.39L200.13 154.39L135.17 191.89L70.22 154.39L70.22 79.39zM200.13 379.39L265.08 416.89L265.08
                491.89L200.13 529.39L135.17 491.89L135.17 416.89zM394.99 266.89L459.94 304.39L459.94 379.39L394.99 416.89L330.03
                379.39L330.03 304.39zM459.94 154.39L524.9 191.89L524.9 266.89L459.94 304.39L394.99 266.89L394.99 191.89zM589.85
                -70.61L654.8 -33.11L654.8 41.89L589.85 79.39L524.9 41.89L524.9 -33.11zM654.8 266.89L719.76 304.39L719.76 379.39L654.8
                416.89L589.85 379.39L589.85 304.39zM654.8 491.89L719.76 529.39L719.76 604.39L654.8 641.89L589.85 604.39L589.85
                529.39zM719.76 -70.61L784.71 -33.11L784.71 41.89L719.76 79.39L654.8 41.89L654.8 -33.11zM719.76 154.39L784.71
                191.89L784.71 266.89L719.76 304.39L654.8 266.89L654.8 191.89zM784.71 266.89L849.67 304.39L849.67 379.39L784.71
                416.89L719.76 379.39L719.76 304.39zM719.76 379.39L784.71 416.89L784.71 491.89L719.76 529.39L654.8 491.89L654.8
                416.89zM784.71 491.89L849.67 529.39L849.67 604.39L784.71 641.89L719.76 604.39L719.76 529.39zM914.62 266.89L979.57
                304.39L979.57 379.39L914.62 416.89L849.66 379.39L849.66 304.39zM914.62 491.89L979.57 529.39L979.57 604.39L914.62
                641.89L849.66 604.39L849.66 529.39zM979.57 154.39L1044.53 191.89L1044.53 266.89L979.57 304.39L914.62 266.89L914.62
                191.89zM1174.43 41.89L1239.39 79.39L1239.39 154.39L1174.43 191.89L1109.48 154.39L1109.48 79.39zM1174.43 491.89L1239.39
                529.39L1239.39 604.39L1174.43 641.89L1109.48 604.39L1109.48 529.39zM1239.39 379.39L1304.34 416.89L1304.34 491.89L1239.39
                529.39L1174.43 491.89L1174.43 416.89zM1434.25 266.89L1499.2 304.39L1499.2 379.39L1434.25 416.89L1369.3 379.39L1369.3
                304.39zM1564.16 41.89L1629.11 79.39L1629.11 154.39L1564.16 191.89L1499.2 154.39L1499.2 79.39z"
            stroke="#03305d"
            stroke-width="2"></path>
        <path
            d="M127.67 41.89 a7.5 7.5 0 1 0 15 0 a7.5 7.5 0 1 0 -15 0zM192.63 79.39 a7.5 7.5 0 1 0 15 0 a7.5 7.5 0 1 0 -15 0zM192.63
                154.39 a7.5 7.5 0 1 0 15 0 a7.5 7.5 0 1 0 -15 0zM127.67 191.89 a7.5 7.5 0 1 0 15 0 a7.5 7.5 0 1 0 -15 0zM62.72 154.39
                a7.5 7.5 0 1 0 15 0 a7.5 7.5 0 1 0 -15 0zM62.72 79.39 a7.5 7.5 0 1 0 15 0 a7.5 7.5 0 1 0 -15 0zM192.63 379.39 a7.5 7.5 0
                1 0 15 0 a7.5 7.5 0 1 0 -15 0zM257.58 416.89 a7.5 7.5 0 1 0 15 0 a7.5 7.5 0 1 0 -15 0zM257.58 491.89 a7.5 7.5 0 1 0 15 0
                a7.5 7.5 0 1 0 -15 0zM192.63 529.39 a7.5 7.5 0 1 0 15 0 a7.5 7.5 0 1 0 -15 0zM127.67 491.89 a7.5 7.5 0 1 0 15 0 a7.5 7.5
                0 1 0 -15 0zM127.67 416.89 a7.5 7.5 0 1 0 15 0 a7.5 7.5 0 1 0 -15 0zM387.49 266.89 a7.5 7.5 0 1 0 15 0 a7.5 7.5 0 1 0 -15
                0zM452.44 304.39 a7.5 7.5 0 1 0 15 0 a7.5 7.5 0 1 0 -15 0zM452.44 379.39 a7.5 7.5 0 1 0 15 0 a7.5 7.5 0 1 0 -15 0zM387.49
                416.89 a7.5 7.5 0 1 0 15 0 a7.5 7.5 0 1 0 -15 0zM322.53 379.39 a7.5 7.5 0 1 0 15 0 a7.5 7.5 0 1 0 -15 0zM322.53 304.39
                a7.5 7.5 0 1 0 15 0 a7.5 7.5 0 1 0 -15 0zM452.44 154.39 a7.5 7.5 0 1 0 15 0 a7.5 7.5 0 1 0 -15 0zM517.4 191.89 a7.5 7.5 0
                1 0 15 0 a7.5 7.5 0 1 0 -15 0zM517.4 266.89 a7.5 7.5 0 1 0 15 0 a7.5 7.5 0 1 0 -15 0zM387.49 191.89 a7.5 7.5 0 1 0 15 0
                a7.5 7.5 0 1 0 -15 0zM582.35 -70.61 a7.5 7.5 0 1 0 15 0 a7.5 7.5 0 1 0 -15 0zM647.3 -33.11 a7.5 7.5 0 1 0 15 0 a7.5 7.5 0
                1 0 -15 0zM647.3 41.89 a7.5 7.5 0 1 0 15 0 a7.5 7.5 0 1 0 -15 0zM582.35 79.39 a7.5 7.5 0 1 0 15 0 a7.5 7.5 0 1 0 -15
                0zM517.4 41.89 a7.5 7.5 0 1 0 15 0 a7.5 7.5 0 1 0 -15 0zM517.4 -33.11 a7.5 7.5 0 1 0 15 0 a7.5 7.5 0 1 0 -15 0zM647.3
                266.89 a7.5 7.5 0 1 0 15 0 a7.5 7.5 0 1 0 -15 0zM712.26 304.39 a7.5 7.5 0 1 0 15 0 a7.5 7.5 0 1 0 -15 0zM712.26 379.39
                a7.5 7.5 0 1 0 15 0 a7.5 7.5 0 1 0 -15 0zM647.3 416.89 a7.5 7.5 0 1 0 15 0 a7.5 7.5 0 1 0 -15 0zM582.35 379.39 a7.5 7.5 0
                1 0 15 0 a7.5 7.5 0 1 0 -15 0zM582.35 304.39 a7.5 7.5 0 1 0 15 0 a7.5 7.5 0 1 0 -15 0zM647.3 491.89 a7.5 7.5 0 1 0 15 0
                a7.5 7.5 0 1 0 -15 0zM712.26 529.39 a7.5 7.5 0 1 0 15 0 a7.5 7.5 0 1 0 -15 0zM712.26 604.39 a7.5 7.5 0 1 0 15 0 a7.5 7.5
                0 1 0 -15 0zM647.3 641.89 a7.5 7.5 0 1 0 15 0 a7.5 7.5 0 1 0 -15 0zM582.35 604.39 a7.5 7.5 0 1 0 15 0 a7.5 7.5 0 1 0 -15
                0zM582.35 529.39 a7.5 7.5 0 1 0 15 0 a7.5 7.5 0 1 0 -15 0zM712.26 -70.61 a7.5 7.5 0 1 0 15 0 a7.5 7.5 0 1 0 -15 0zM777.21
                -33.11 a7.5 7.5 0 1 0 15 0 a7.5 7.5 0 1 0 -15 0zM777.21 41.89 a7.5 7.5 0 1 0 15 0 a7.5 7.5 0 1 0 -15 0zM712.26 79.39 a7.5
                7.5 0 1 0 15 0 a7.5 7.5 0 1 0 -15 0zM712.26 154.39 a7.5 7.5 0 1 0 15 0 a7.5 7.5 0 1 0 -15 0zM777.21 191.89 a7.5 7.5 0 1 0
                15 0 a7.5 7.5 0 1 0 -15 0zM777.21 266.89 a7.5 7.5 0 1 0 15 0 a7.5 7.5 0 1 0 -15 0zM647.3 191.89 a7.5 7.5 0 1 0 15 0 a7.5
                7.5 0 1 0 -15 0zM842.17 304.39 a7.5 7.5 0 1 0 15 0 a7.5 7.5 0 1 0 -15 0zM842.17 379.39 a7.5 7.5 0 1 0 15 0 a7.5 7.5 0 1 0
                -15 0zM777.21 416.89 a7.5 7.5 0 1 0 15 0 a7.5 7.5 0 1 0 -15 0zM777.21 491.89 a7.5 7.5 0 1 0 15 0 a7.5 7.5 0 1 0 -15
                0zM842.17 529.39 a7.5 7.5 0 1 0 15 0 a7.5 7.5 0 1 0 -15 0zM842.17 604.39 a7.5 7.5 0 1 0 15 0 a7.5 7.5 0 1 0 -15 0zM777.21
                641.89 a7.5 7.5 0 1 0 15 0 a7.5 7.5 0 1 0 -15 0zM907.12 266.89 a7.5 7.5 0 1 0 15 0 a7.5 7.5 0 1 0 -15 0zM972.07 304.39
                a7.5 7.5 0 1 0 15 0 a7.5 7.5 0 1 0 -15 0zM972.07 379.39 a7.5 7.5 0 1 0 15 0 a7.5 7.5 0 1 0 -15 0zM907.12 416.89 a7.5 7.5
                0 1 0 15 0 a7.5 7.5 0 1 0 -15 0zM842.16 379.39 a7.5 7.5 0 1 0 15 0 a7.5 7.5 0 1 0 -15 0zM842.16 304.39 a7.5 7.5 0 1 0 15
                0 a7.5 7.5 0 1 0 -15 0zM907.12 491.89 a7.5 7.5 0 1 0 15 0 a7.5 7.5 0 1 0 -15 0zM972.07 529.39 a7.5 7.5 0 1 0 15 0 a7.5
                7.5 0 1 0 -15 0zM972.07 604.39 a7.5 7.5 0 1 0 15 0 a7.5 7.5 0 1 0 -15 0zM907.12 641.89 a7.5 7.5 0 1 0 15 0 a7.5 7.5 0 1 0
                -15 0zM842.16 604.39 a7.5 7.5 0 1 0 15 0 a7.5 7.5 0 1 0 -15 0zM842.16 529.39 a7.5 7.5 0 1 0 15 0 a7.5 7.5 0 1 0 -15
                0zM972.07 154.39 a7.5 7.5 0 1 0 15 0 a7.5 7.5 0 1 0 -15 0zM1037.03 191.89 a7.5 7.5 0 1 0 15 0 a7.5 7.5 0 1 0 -15
                0zM1037.03 266.89 a7.5 7.5 0 1 0 15 0 a7.5 7.5 0 1 0 -15 0zM907.12 191.89 a7.5 7.5 0 1 0 15 0 a7.5 7.5 0 1 0 -15
                0zM1166.93 41.89 a7.5 7.5 0 1 0 15 0 a7.5 7.5 0 1 0 -15 0zM1231.89 79.39 a7.5 7.5 0 1 0 15 0 a7.5 7.5 0 1 0 -15
                0zM1231.89 154.39 a7.5 7.5 0 1 0 15 0 a7.5 7.5 0 1 0 -15 0zM1166.93 191.89 a7.5 7.5 0 1 0 15 0 a7.5 7.5 0 1 0 -15
                0zM1101.98 154.39 a7.5 7.5 0 1 0 15 0 a7.5 7.5 0 1 0 -15 0zM1101.98 79.39 a7.5 7.5 0 1 0 15 0 a7.5 7.5 0 1 0 -15
                0zM1166.93 491.89 a7.5 7.5 0 1 0 15 0 a7.5 7.5 0 1 0 -15 0zM1231.89 529.39 a7.5 7.5 0 1 0 15 0 a7.5 7.5 0 1 0 -15
                0zM1231.89 604.39 a7.5 7.5 0 1 0 15 0 a7.5 7.5 0 1 0 -15 0zM1166.93 641.89 a7.5 7.5 0 1 0 15 0 a7.5 7.5 0 1 0 -15
                0zM1101.98 604.39 a7.5 7.5 0 1 0 15 0 a7.5 7.5 0 1 0 -15 0zM1101.98 529.39 a7.5 7.5 0 1 0 15 0 a7.5 7.5 0 1 0 -15
                0zM1231.89 379.39 a7.5 7.5 0 1 0 15 0 a7.5 7.5 0 1 0 -15 0zM1296.84 416.89 a7.5 7.5 0 1 0 15 0 a7.5 7.5 0 1 0 -15
                0zM1296.84 491.89 a7.5 7.5 0 1 0 15 0 a7.5 7.5 0 1 0 -15 0zM1166.93 416.89 a7.5 7.5 0 1 0 15 0 a7.5 7.5 0 1 0 -15
                0zM1426.75 266.89 a7.5 7.5 0 1 0 15 0 a7.5 7.5 0 1 0 -15 0zM1491.7 304.39 a7.5 7.5 0 1 0 15 0 a7.5 7.5 0 1 0 -15
                0zM1491.7 379.39 a7.5 7.5 0 1 0 15 0 a7.5 7.5 0 1 0 -15 0zM1426.75 416.89 a7.5 7.5 0 1 0 15 0 a7.5 7.5 0 1 0 -15
                0zM1361.8 379.39 a7.5 7.5 0 1 0 15 0 a7.5 7.5 0 1 0 -15 0zM1361.8 304.39 a7.5 7.5 0 1 0 15 0 a7.5 7.5 0 1 0 -15
                0zM1556.66 41.89 a7.5 7.5 0 1 0 15 0 a7.5 7.5 0 1 0 -15 0zM1621.61 79.39 a7.5 7.5 0 1 0 15 0 a7.5 7.5 0 1 0 -15
                0zM1621.61 154.39 a7.5 7.5 0 1 0 15 0 a7.5 7.5 0 1 0 -15 0zM1556.66 191.89 a7.5 7.5 0 1 0 15 0 a7.5 7.5 0 1 0 -15
                0zM1491.7 154.39 a7.5 7.5 0 1 0 15 0 a7.5 7.5 0 1 0 -15 0zM1491.7 79.39 a7.5 7.5 0 1 0 15 0 a7.5 7.5 0 1 0 -15 0z"
            fill="#03305d"></path>
        <path
            d="M191.92 54.78L253.41 90.28L253.41 161.28L191.92 196.78L130.43 161.28L130.43 90.28zM130.43 161.28L191.92 196.78L191.92
                267.78L130.43 303.28L68.94 267.78L68.94 196.78zM191.92 480.78L253.41 516.28L253.41 587.28L191.92 622.78L130.43
                587.28L130.43 516.28zM253.41 -51.72L314.9 -16.22L314.9 54.78L253.41 90.28L191.92 54.78L191.92 -16.22zM314.9 267.78L376.39
                303.28L376.39 374.28L314.9 409.78L253.41 374.28L253.41 303.28zM376.39 161.28L437.88 196.78L437.88 267.78L376.39
                303.28L314.9 267.78L314.9 196.78zM437.88 480.78L499.37 516.28L499.37 587.28L437.88 622.78L376.39 587.28L376.39
                516.28zM499.37 -51.72L560.86 -16.22L560.86 54.78L499.37 90.28L437.88 54.78L437.88 -16.22zM499.37 161.28L560.86
                196.78L560.86 267.78L499.37 303.28L437.88 267.78L437.88 196.78zM560.86 480.78L622.35 516.28L622.35 587.28L560.86
                622.78L499.37 587.28L499.37 516.28zM683.84 54.78L745.32 90.28L745.32 161.28L683.84 196.78L622.35 161.28L622.35
                90.28zM683.84 267.78L745.32 303.28L745.32 374.28L683.84 409.78L622.35 374.28L622.35 303.28zM745.32 -51.72L806.81
                -16.22L806.81 54.78L745.32 90.28L683.84 54.78L683.84 -16.22zM868.3 -51.72L929.79 -16.22L929.79 54.78L868.3 90.28L806.81
                54.78L806.81 -16.22zM929.79 267.78L991.28 303.28L991.28 374.28L929.79 409.78L868.3 374.28L868.3 303.28zM1052.77
                54.78L1114.26 90.28L1114.26 161.28L1052.77 196.78L991.28 161.28L991.28 90.28zM1114.26 -51.72L1175.75 -16.22L1175.75
                54.78L1114.26 90.28L1052.77 54.78L1052.77 -16.22zM1175.75 267.78L1237.24 303.28L1237.24 374.28L1175.75 409.78L1114.26
                374.28L1114.26 303.28zM1114.26 374.28L1175.75 409.78L1175.75 480.78L1114.26 516.28L1052.77 480.78L1052.77 409.78zM1421.71
                267.78L1483.2 303.28L1483.2 374.28L1421.71 409.78L1360.22 374.28L1360.22 303.28z"
            stroke="rgba(6, 80, 156, 0.93)"
            stroke-width="2"></path>
    </g>
    <defs>
        <mask id="SvgjsMask1066">
            <rect width="1440" height="560" fill="#ffffff"></rect>
        </mask>
        <linearGradient
            x1="15.28%"
            y1="-39.29%"
            x2="84.72%"
            y2="139.29%"
            gradientUnits="userSpaceOnUse"
            id="SvgjsLinearGradient1067">
            <stop stop-color="#0e2a47" offset="0"></stop>
            <stop stop-color="#00459e" offset="1"></stop>
        </linearGradient>
    </defs>
</svg>
