<svg xmlns="http://www.w3.org/2000/svg" version="1.1" xmlns:xlink="http://www.w3.org/1999/xlink" xmlns:svgjs="http://svgjs.com/svgjs" width="1920" height="1080" preserveAspectRatio="none" viewBox="0 0 1920 1080"><g mask="url(&quot;#SvgjsMask1036&quot;)" fill="none"><rect width="1920" height="1080" x="0" y="0" fill="url(#SvgjsLinearGradient1037)"></rect><path d="M27.19 -32.76L92.14 4.74L92.14 79.74L27.19 117.24L-37.76 79.74L-37.76 4.74zM92.14 304.74L157.1 342.24L157.1 417.24L92.14 454.74L27.19 417.24L27.19 342.24zM27.19 642.24L92.14 679.74L92.14 754.74L27.19 792.24L-37.76 754.74L-37.76 679.74zM27.19 867.24L92.14 904.74L92.14 979.74L27.19 1017.24L-37.76 979.74L-37.76 904.74zM222.05 79.74L287 117.24L287 192.24L222.05 229.74L157.1 192.24L157.1 117.24zM157.1 192.24L222.05 229.74L222.05 304.74L157.1 342.24L92.14 304.74L92.14 229.74zM222.05 304.74L287 342.24L287 417.24L222.05 454.74L157.1 417.24L157.1 342.24zM157.1 417.24L222.05 454.74L222.05 529.74L157.1 567.24L92.14 529.74L92.14 454.74zM157.1 642.24L222.05 679.74L222.05 754.74L157.1 792.24L92.14 754.74L92.14 679.74zM157.1 867.24L222.05 904.74L222.05 979.74L157.1 1017.24L92.14 979.74L92.14 904.74zM287 192.24L351.96 229.74L351.96 304.74L287 342.24L222.05 304.74L222.05 229.74zM287 417.24L351.96 454.74L351.96 529.74L287 567.24L222.05 529.74L222.05 454.74zM351.96 529.74L416.91 567.24L416.91 642.24L351.96 679.74L287 642.24L287 567.24zM287 642.24L351.96 679.74L351.96 754.74L287 792.24L222.05 754.74L222.05 679.74zM351.96 754.74L416.91 792.24L416.91 867.24L351.96 904.74L287 867.24L287 792.24zM287 867.24L351.96 904.74L351.96 979.74L287 1017.24L222.05 979.74L222.05 904.74zM416.91 -32.76L481.87 4.74L481.87 79.74L416.91 117.24L351.96 79.74L351.96 4.74zM481.87 79.74L546.82 117.24L546.82 192.24L481.87 229.74L416.91 192.24L416.91 117.24zM416.91 417.24L481.87 454.74L481.87 529.74L416.91 567.24L351.96 529.74L351.96 454.74zM481.87 529.74L546.82 567.24L546.82 642.24L481.87 679.74L416.91 642.24L416.91 567.24zM416.91 642.24L481.87 679.74L481.87 754.74L416.91 792.24L351.96 754.74L351.96 679.74zM416.91 1092.24L481.87 1129.74L481.87 1204.74L416.91 1242.24L351.96 1204.74L351.96 1129.74zM611.77 79.74L676.73 117.24L676.73 192.24L611.77 229.74L546.82 192.24L546.82 117.24zM546.82 192.24L611.77 229.74L611.77 304.74L546.82 342.24L481.87 304.74L481.87 229.74zM546.82 642.24L611.77 679.74L611.77 754.74L546.82 792.24L481.87 754.74L481.87 679.74zM546.82 867.24L611.77 904.74L611.77 979.74L546.82 1017.24L481.87 979.74L481.87 904.74zM741.68 79.74L806.64 117.24L806.64 192.24L741.68 229.74L676.73 192.24L676.73 117.24zM676.73 192.24L741.68 229.74L741.68 304.74L676.73 342.24L611.77 304.74L611.77 229.74zM741.68 304.74L806.64 342.24L806.64 417.24L741.68 454.74L676.73 417.24L676.73 342.24zM676.73 417.24L741.68 454.74L741.68 529.74L676.73 567.24L611.77 529.74L611.77 454.74zM741.68 754.74L806.64 792.24L806.64 867.24L741.68 904.74L676.73 867.24L676.73 792.24zM741.68 979.74L806.64 1017.24L806.64 1092.24L741.68 1129.74L676.73 1092.24L676.73 1017.24zM871.59 79.74L936.54 117.24L936.54 192.24L871.59 229.74L806.63 192.24L806.63 117.24zM806.63 417.24L871.59 454.74L871.59 529.74L806.63 567.24L741.68 529.74L741.68 454.74zM806.63 642.24L871.59 679.74L871.59 754.74L806.63 792.24L741.68 754.74L741.68 679.74zM936.54 -32.76L1001.5 4.74L1001.5 79.74L936.54 117.24L871.59 79.74L871.59 4.74zM1001.5 79.74L1066.45 117.24L1066.45 192.24L1001.5 229.74L936.54 192.24L936.54 117.24zM936.54 192.24L1001.5 229.74L1001.5 304.74L936.54 342.24L871.59 304.74L871.59 229.74zM1001.5 304.74L1066.45 342.24L1066.45 417.24L1001.5 454.74L936.54 417.24L936.54 342.24zM1001.5 529.74L1066.45 567.24L1066.45 642.24L1001.5 679.74L936.54 642.24L936.54 567.24zM936.54 642.24L1001.5 679.74L1001.5 754.74L936.54 792.24L871.59 754.74L871.59 679.74zM1001.5 979.74L1066.45 1017.24L1066.45 1092.24L1001.5 1129.74L936.54 1092.24L936.54 1017.24zM936.54 1092.24L1001.5 1129.74L1001.5 1204.74L936.54 1242.24L871.59 1204.74L871.59 1129.74zM1066.45 417.24L1131.4 454.74L1131.4 529.74L1066.45 567.24L1001.5 529.74L1001.5 454.74zM1131.4 529.74L1196.36 567.24L1196.36 642.24L1131.4 679.74L1066.45 642.24L1066.45 567.24zM1066.45 642.24L1131.4 679.74L1131.4 754.74L1066.45 792.24L1001.5 754.74L1001.5 679.74zM1131.4 754.74L1196.36 792.24L1196.36 867.24L1131.4 904.74L1066.45 867.24L1066.45 792.24zM1131.4 979.74L1196.36 1017.24L1196.36 1092.24L1131.4 1129.74L1066.45 1092.24L1066.45 1017.24zM1261.31 79.74L1326.26 117.24L1326.26 192.24L1261.31 229.74L1196.36 192.24L1196.36 117.24zM1261.31 304.74L1326.26 342.24L1326.26 417.24L1261.31 454.74L1196.36 417.24L1196.36 342.24zM1196.36 417.24L1261.31 454.74L1261.31 529.74L1196.36 567.24L1131.4 529.74L1131.4 454.74zM1261.31 529.74L1326.26 567.24L1326.26 642.24L1261.31 679.74L1196.36 642.24L1196.36 567.24zM1261.31 979.74L1326.26 1017.24L1326.26 1092.24L1261.31 1129.74L1196.36 1092.24L1196.36 1017.24zM1196.36 1092.24L1261.31 1129.74L1261.31 1204.74L1196.36 1242.24L1131.4 1204.74L1131.4 1129.74zM1326.27 417.24L1391.22 454.74L1391.22 529.74L1326.27 567.24L1261.31 529.74L1261.31 454.74zM1391.22 529.74L1456.17 567.24L1456.17 642.24L1391.22 679.74L1326.27 642.24L1326.27 567.24zM1326.27 867.24L1391.22 904.74L1391.22 979.74L1326.27 1017.24L1261.31 979.74L1261.31 904.74zM1456.17 192.24L1521.13 229.74L1521.13 304.74L1456.17 342.24L1391.22 304.74L1391.22 229.74zM1456.17 642.24L1521.13 679.74L1521.13 754.74L1456.17 792.24L1391.22 754.74L1391.22 679.74zM1521.13 979.74L1586.08 1017.24L1586.08 1092.24L1521.13 1129.74L1456.17 1092.24L1456.17 1017.24zM1456.17 1092.24L1521.13 1129.74L1521.13 1204.74L1456.17 1242.24L1391.22 1204.74L1391.22 1129.74zM1651.03 79.74L1715.99 117.24L1715.99 192.24L1651.03 229.74L1586.08 192.24L1586.08 117.24zM1586.08 417.24L1651.03 454.74L1651.03 529.74L1586.08 567.24L1521.13 529.74L1521.13 454.74zM1651.03 529.74L1715.99 567.24L1715.99 642.24L1651.03 679.74L1586.08 642.24L1586.08 567.24zM1586.08 1092.24L1651.03 1129.74L1651.03 1204.74L1586.08 1242.24L1521.13 1204.74L1521.13 1129.74zM1780.94 79.74L1845.89 117.24L1845.89 192.24L1780.94 229.74L1715.99 192.24L1715.99 117.24zM1715.99 192.24L1780.94 229.74L1780.94 304.74L1715.99 342.24L1651.03 304.74L1651.03 229.74zM1780.94 304.74L1845.89 342.24L1845.89 417.24L1780.94 454.74L1715.99 417.24L1715.99 342.24zM1780.94 754.74L1845.89 792.24L1845.89 867.24L1780.94 904.74L1715.99 867.24L1715.99 792.24zM1780.94 979.74L1845.89 1017.24L1845.89 1092.24L1780.94 1129.74L1715.99 1092.24L1715.99 1017.24zM1845.89 -32.76L1910.85 4.74L1910.85 79.74L1845.89 117.24L1780.94 79.74L1780.94 4.74zM1910.85 79.74L1975.8 117.24L1975.8 192.24L1910.85 229.74L1845.89 192.24L1845.89 117.24zM1910.85 304.74L1975.8 342.24L1975.8 417.24L1910.85 454.74L1845.89 417.24L1845.89 342.24zM1845.89 417.24L1910.85 454.74L1910.85 529.74L1845.89 567.24L1780.94 529.74L1780.94 454.74zM1845.89 1092.24L1910.85 1129.74L1910.85 1204.74L1845.89 1242.24L1780.94 1204.74L1780.94 1129.74z" stroke="#03305d" stroke-width="2"></path><path d="M31.73 419.56L93.22 455.06L93.22 526.06L31.73 561.56L-29.76 526.06L-29.76 455.06zM31.73 632.56L93.22 668.06L93.22 739.06L31.73 774.56L-29.76 739.06L-29.76 668.06zM31.73 845.56L93.22 881.06L93.22 952.06L31.73 987.56L-29.76 952.06L-29.76 881.06zM31.73 1058.56L93.22 1094.06L93.22 1165.06L31.73 1200.56L-29.76 1165.06L-29.76 1094.06zM216.2 313.06L277.69 348.56L277.69 419.56L216.2 455.06L154.71 419.56L154.71 348.56zM216.2 526.06L277.69 561.56L277.69 632.56L216.2 668.06L154.71 632.56L154.71 561.56zM154.71 632.56L216.2 668.06L216.2 739.06L154.71 774.56L93.22 739.06L93.22 668.06zM216.2 739.06L277.69 774.56L277.69 845.56L216.2 881.06L154.71 845.56L154.71 774.56zM277.69 419.56L339.18 455.06L339.18 526.06L277.69 561.56L216.2 526.06L216.2 455.06zM277.69 632.56L339.18 668.06L339.18 739.06L277.69 774.56L216.2 739.06L216.2 668.06zM523.65 206.56L585.14 242.06L585.14 313.06L523.65 348.56L462.16 313.06L462.16 242.06zM585.14 526.06L646.63 561.56L646.63 632.56L585.14 668.06L523.65 632.56L523.65 561.56zM708.12 313.06L769.6 348.56L769.6 419.56L708.12 455.06L646.63 419.56L646.63 348.56zM646.63 632.56L708.12 668.06L708.12 739.06L646.63 774.56L585.14 739.06L585.14 668.06zM646.63 845.56L708.12 881.06L708.12 952.06L646.63 987.56L585.14 952.06L585.14 881.06zM708.12 952.06L769.6 987.56L769.6 1058.56L708.12 1094.06L646.63 1058.56L646.63 987.56zM646.63 1058.56L708.12 1094.06L708.12 1165.06L646.63 1200.56L585.14 1165.06L585.14 1094.06zM769.6 -6.44L831.09 29.06L831.09 100.06L769.6 135.56L708.12 100.06L708.12 29.06zM769.6 206.56L831.09 242.06L831.09 313.06L769.6 348.56L708.12 313.06L708.12 242.06zM831.09 313.06L892.58 348.56L892.58 419.56L831.09 455.06L769.6 419.56L769.6 348.56zM831.09 526.06L892.58 561.56L892.58 632.56L831.09 668.06L769.6 632.56L769.6 561.56zM831.09 739.06L892.58 774.56L892.58 845.56L831.09 881.06L769.6 845.56L769.6 774.56zM769.6 845.56L831.09 881.06L831.09 952.06L769.6 987.56L708.12 952.06L708.12 881.06zM954.07 100.06L1015.56 135.56L1015.56 206.56L954.07 242.06L892.58 206.56L892.58 135.56zM954.07 952.06L1015.56 987.56L1015.56 1058.56L954.07 1094.06L892.58 1058.56L892.58 987.56zM892.58 1058.56L954.07 1094.06L954.07 1165.06L892.58 1200.56L831.09 1165.06L831.09 1094.06zM1077.05 526.06L1138.54 561.56L1138.54 632.56L1077.05 668.06L1015.56 632.56L1015.56 561.56zM1015.56 632.56L1077.05 668.06L1077.05 739.06L1015.56 774.56L954.07 739.06L954.07 668.06zM1015.56 845.56L1077.05 881.06L1077.05 952.06L1015.56 987.56L954.07 952.06L954.07 881.06zM1200.03 313.06L1261.52 348.56L1261.52 419.56L1200.03 455.06L1138.54 419.56L1138.54 348.56zM1200.03 739.06L1261.52 774.56L1261.52 845.56L1200.03 881.06L1138.54 845.56L1138.54 774.56zM1261.52 632.56L1323.01 668.06L1323.01 739.06L1261.52 774.56L1200.03 739.06L1200.03 668.06zM1323.01 739.06L1384.5 774.56L1384.5 845.56L1323.01 881.06L1261.52 845.56L1261.52 774.56zM1384.5 -6.44L1445.99 29.06L1445.99 100.06L1384.5 135.56L1323.01 100.06L1323.01 29.06zM1445.99 100.06L1507.48 135.56L1507.48 206.56L1445.99 242.06L1384.5 206.56L1384.5 135.56zM1445.99 739.06L1507.48 774.56L1507.48 845.56L1445.99 881.06L1384.5 845.56L1384.5 774.56zM1384.5 845.56L1445.99 881.06L1445.99 952.06L1384.5 987.56L1323.01 952.06L1323.01 881.06zM1445.99 952.06L1507.48 987.56L1507.48 1058.56L1445.99 1094.06L1384.5 1058.56L1384.5 987.56zM1384.5 1058.56L1445.99 1094.06L1445.99 1165.06L1384.5 1200.56L1323.01 1165.06L1323.01 1094.06zM1568.97 526.06L1630.46 561.56L1630.46 632.56L1568.97 668.06L1507.48 632.56L1507.48 561.56zM1630.46 -6.44L1691.95 29.06L1691.95 100.06L1630.46 135.56L1568.97 100.06L1568.97 29.06zM1691.95 100.06L1753.44 135.56L1753.44 206.56L1691.95 242.06L1630.46 206.56L1630.46 135.56zM1691.95 313.06L1753.44 348.56L1753.44 419.56L1691.95 455.06L1630.46 419.56L1630.46 348.56zM1753.44 206.56L1814.93 242.06L1814.93 313.06L1753.44 348.56L1691.95 313.06L1691.95 242.06zM1753.44 1058.56L1814.93 1094.06L1814.93 1165.06L1753.44 1200.56L1691.95 1165.06L1691.95 1094.06zM1876.42 845.56L1937.91 881.06L1937.91 952.06L1876.42 987.56L1814.93 952.06L1814.93 881.06z" stroke="rgba(6, 80, 156, 0.93)" stroke-width="2"></path></g><defs><mask id="SvgjsMask1036"><rect width="1920" height="1080" fill="#ffffff"></rect></mask><linearGradient x1="10.94%" y1="-19.44%" x2="89.06%" y2="119.44%" gradientUnits="userSpaceOnUse" id="SvgjsLinearGradient1037"><stop stop-color="#0e2a47" offset="0"></stop><stop stop-color="#00459e" offset="1"></stop></linearGradient></defs></svg>